<?xml version="1.0" encoding="UTF-8" standalone="no"?> <svg xmlns="http://www.w3.org/2000/svg" xmlns:xlink="http://www.w3.org/1999/xlink" viewBox="0 0 72 72"><defs><style>.cls-1{fill:url(#linear-gradient);}.cls-2{fill:url(#linear-gradient-2);}.cls-3{fill:url(#linear-gradient-3);}.cls-4{fill:url(#linear-gradient-4);}.cls-5{fill:url(#linear-gradient-5);}.cls-6{fill:url(#linear-gradient-6);}.cls-7{fill:url(#linear-gradient-7);}.cls-8{fill:url(#linear-gradient-8);}</style><linearGradient id="linear-gradient" x1="36" y1="32.846" x2="36" y2="45.457" gradientUnits="userSpaceOnUse"><stop offset="0" stop-color="#3e4154"/><stop offset="1" stop-color="#1b2129"/></linearGradient><linearGradient id="linear-gradient-2" x1="36" y1="40.002" x2="36" y2="56.681" gradientUnits="userSpaceOnUse"><stop offset="0" stop-color="#fff"/><stop offset="1" stop-color="#e6eaeb"/></linearGradient><linearGradient id="linear-gradient-3" x1="36" y1="57.359" x2="36" y2="62.829" gradientUnits="userSpaceOnUse"><stop offset="0" stop-color="#db686b"/><stop offset="1" stop-color="#c23542"/></linearGradient><linearGradient id="linear-gradient-4" x1="36" y1="46.929" x2="36" y2="58.038" xlink:href="#linear-gradient-3"/><linearGradient id="linear-gradient-5" x1="58" y1="20.703" x2="58" y2="35.112" gradientUnits="userSpaceOnUse"><stop offset="0" stop-color="#fed200"/><stop offset="1" stop-color="#f59815"/></linearGradient><linearGradient id="linear-gradient-6" y1="10.695" x2="36" y2="36.725" xlink:href="#linear-gradient"/><linearGradient id="linear-gradient-7" x1="58" y1="34.337" x2="58" y2="43.765" xlink:href="#linear-gradient-5"/><linearGradient id="linear-gradient-8" x1="58" y1="33.074" x2="58" y2="38.314" xlink:href="#linear-gradient-5"/></defs><title>Graduation</title><g id="Graduation"><rect class="cls-1" x="19" y="19" width="34" height="30"/><path class="cls-2" d="M66,56.866a2,2,0,0,1-2.116,2C59.4,58.589,48.33,58,36,58s-23.4.589-27.884.863a2,2,0,0,1-2.116-2V48.134a2,2,0,0,1,2.116-2C12.6,46.411,23.67,47,36,47s23.4-.589,27.884-.863a2,2,0,0,1,2.116,2Z"/><path class="cls-3" d="M37.293,62.705,36,61.412l-1.293,1.293A1,1,0,0,1,33,62V55.412h6V62A1,1,0,0,1,37.293,62.705Z"/><rect class="cls-4" x="33" y="46.5" width="6" height="12" rx="1"/><rect class="cls-5" x="57" y="26" width="2" height="11"/><path class="cls-6" d="M7.639,25.38l24.89,11.985a8,8,0,0,0,6.942,0L64.361,25.38a2,2,0,0,0,0-3.6L39.471,9.792a8,8,0,0,0-6.942,0L7.639,21.776A2,2,0,0,0,7.639,25.38Z"/><path class="cls-7" d="M56,44V40.606a2,2,0,0,1,.336-1.11l.832-1.248a1,1,0,0,1,1.664,0l.832,1.248A2,2,0,0,1,60,40.606V44a1,1,0,0,1-1,1H57A1,1,0,0,1,56,44Z"/><circle class="cls-8" cx="58" cy="37" r="2"/></g></svg>